<svg width="150" height="40" viewBox="0 0 150 40" fill="none" xmlns="http://www.w3.org/2000/svg">
<rect width="149" height="40" transform="translate(0.5)" fill="white"/>
<path fill-rule="evenodd" clip-rule="evenodd" d="M126.77 15.1097H123.613C123.444 15.1097 123.307 15.2478 123.305 15.4167V16.4644C123.305 16.4774 123.305 16.4921 123.299 16.5051C123.278 16.5798 123.2 16.622 123.125 16.6009L123.084 16.5814C123.075 16.5717 123.065 16.5603 123.057 16.5473C121.895 15.2965 120.239 14.624 118.535 14.7069C116.617 14.6922 114.788 15.5077 113.516 16.942C110.732 20.0673 110.732 24.7829 113.516 27.9083C114.788 29.3426 116.617 30.1581 118.535 30.1434C120.239 30.2263 121.895 29.5522 123.057 28.303C123.067 28.2884 123.078 28.2738 123.091 28.2624C123.127 28.2397 123.171 28.2315 123.211 28.2429C123.268 28.2591 123.307 28.3111 123.307 28.3696V29.4271C123.307 29.596 123.444 29.7341 123.613 29.7341H126.771C126.939 29.7373 127.075 29.6041 127.078 29.4368V15.42C127.082 15.251 126.947 15.1113 126.778 15.1097C126.774 15.1097 126.771 15.1097 126.77 15.1097ZM119.255 26.4723C117.017 26.4723 115.204 24.6579 115.204 22.4211C115.204 20.1843 117.019 18.3715 119.256 18.3731C121.494 18.3731 123.307 20.1859 123.307 22.4227C123.307 24.6595 121.494 26.4723 119.256 26.4723H119.255Z" fill="black"/>
<path d="M110.298 15.4833C110.298 15.2754 110.129 15.1081 109.921 15.1081H106.8C104.434 15.1081 102.515 17.0249 102.515 19.39V29.3118C102.515 29.5197 102.684 29.687 102.892 29.687H105.903C106.111 29.687 106.279 29.5197 106.28 29.3118V19.8302C106.28 19.247 106.751 18.7743 107.333 18.7727H109.921C110.129 18.7727 110.297 18.6054 110.298 18.3975V15.4833Z" fill="black"/>
<path d="M99.956 26.6526C99.956 26.4772 99.8114 26.3375 99.6376 26.3391C99.6359 26.3391 99.6327 26.3391 99.6311 26.3391C99.2248 26.3489 98.8609 26.3456 98.5521 26.3261C98.1476 26.3261 97.7543 26.188 97.4407 25.9314C97.1613 25.6325 97.0199 25.228 97.0557 24.8203V18.8799C97.0557 18.8019 97.119 18.7402 97.1954 18.7402H99.6506C99.8163 18.7402 99.9528 18.6054 99.9528 18.4397V15.4183C99.9528 15.251 99.8179 15.1162 99.6506 15.1162H97.1954C97.1174 15.1162 97.0557 15.0529 97.0557 14.9765V11.359C97.0557 11.1852 96.9159 11.0455 96.7421 11.0455H93.5963C93.4225 11.0455 93.2827 11.1852 93.2811 11.359V24.8268C93.2811 26.8345 93.8124 28.2283 94.8751 29.008C95.837 29.7146 97.4359 29.9745 99.6554 29.8007C99.8212 29.7877 99.9495 29.6496 99.9512 29.4839L99.956 26.6526Z" fill="black"/>
<path d="M85.3795 30.1581C88.6064 30.1581 90.7675 28.8569 91.3216 26.586C91.7766 24.9649 91.1754 23.23 89.8154 22.2375C88.7527 21.5829 87.6055 21.0777 86.4064 20.7333C84.9928 20.2899 84.0584 19.9959 84.0584 19.1333C84.0584 18.378 84.8108 17.9784 85.555 17.9784C85.9027 17.9719 86.2439 18.0726 86.5331 18.2675C86.7184 18.3926 86.8581 18.5729 86.9345 18.7825C86.9865 18.9319 87.1278 19.031 87.2871 19.031H90.7366C90.9154 19.0326 91.06 18.8897 91.0616 18.7126C91.0616 18.7061 91.0616 18.6996 91.0616 18.6915C90.6148 13.4886 79.9475 13.1312 79.9475 19.5199C79.941 19.6223 79.8192 21.8444 82.6416 22.9831C82.6611 22.9912 84.6938 23.8018 85.5533 24.1218C86.2569 24.2908 86.876 24.7099 87.2919 25.3028C87.4008 25.5529 87.4008 25.8356 87.2919 26.0857C87.032 26.729 85.9335 26.9986 85.1114 26.8394C84.5345 26.7793 84.0536 26.3732 83.8976 25.8161C83.8537 25.6699 83.7172 25.5724 83.5645 25.5773H80.0743C79.8874 25.5757 79.7347 25.7251 79.7331 25.9119C79.7331 25.9265 79.7331 25.9395 79.7347 25.9541C79.915 27.2975 81.0671 30.1597 85.3827 30.1597L85.3795 30.1581Z" fill="black"/>
<path fill-rule="evenodd" clip-rule="evenodd" d="M77.5849 15.1162H74.4278C74.2588 15.1178 74.1223 15.2543 74.1207 15.4232V16.471C74.1207 16.4839 74.1207 16.4986 74.1142 16.5116C74.0931 16.5863 74.0151 16.6285 73.9403 16.6074L73.8997 16.5879C73.89 16.5782 73.8802 16.5668 73.8721 16.5538C72.7103 15.303 71.0546 14.6305 69.3501 14.7134C67.4327 14.6987 65.6015 15.5142 64.3309 16.9485C61.5475 20.0738 61.5475 24.7894 64.3309 27.9148C65.6031 29.3491 67.4327 30.1646 69.3501 30.1499C71.0546 30.2328 72.7103 29.5587 73.8721 28.3095C73.8818 28.2949 73.8932 28.2803 73.9062 28.2689C73.9419 28.2462 73.9858 28.238 74.0264 28.2494C74.0833 28.2656 74.1223 28.3176 74.1223 28.3761V29.4336C74.1223 29.6025 74.2588 29.7406 74.4278 29.7406H77.5865C77.7539 29.7438 77.8904 29.6106 77.8936 29.4433V15.4265C77.8969 15.2575 77.762 15.1178 77.593 15.1162C77.5898 15.1162 77.5865 15.1162 77.5849 15.1162ZM70.0699 26.4788C67.8325 26.4788 66.0191 24.666 66.0191 22.4292C66.0191 20.1924 67.8325 18.3796 70.0699 18.3796C72.3073 18.3796 74.1207 20.1924 74.1207 22.4292C74.1207 24.666 72.3073 26.4788 70.0699 26.4788Z" fill="black"/>
<path fill-rule="evenodd" clip-rule="evenodd" d="M60.1517 11.0487H56.9946C56.8256 11.0504 56.6891 11.1868 56.6875 11.3557V16.4709C56.6875 16.4839 56.6875 16.4986 56.681 16.5116C56.6599 16.5863 56.5819 16.6285 56.5072 16.6074L56.4665 16.5879C56.4568 16.5782 56.447 16.5668 56.4389 16.5538C55.2771 15.303 53.6214 14.6305 51.9169 14.7134C49.9996 14.6987 48.1684 15.5142 46.8977 16.9485C44.1143 20.0738 44.1143 24.7894 46.8977 27.9148C48.17 29.3491 49.9996 30.1645 51.9169 30.1499C53.6214 30.2328 55.2771 29.5586 56.4389 28.3095C56.4487 28.2949 56.46 28.2803 56.473 28.2689C56.5088 28.2461 56.5527 28.238 56.5933 28.2494C56.6501 28.2656 56.6891 28.3176 56.6891 28.3761V29.4336C56.6891 29.6025 56.8256 29.7406 56.9946 29.7406H60.1534C60.3191 29.7438 60.4572 29.6123 60.4605 29.4449C60.4605 29.4417 60.4605 29.4368 60.4605 29.4336V11.3557C60.4605 11.1868 60.324 11.0487 60.155 11.0487H60.1501H60.1517ZM52.6367 26.4788C50.3993 26.4788 48.5859 24.666 48.5859 22.4292C48.5859 20.1924 50.3993 18.3796 52.6367 18.3796C54.8742 18.3796 56.6875 20.1924 56.6875 22.4292C56.6843 24.6644 54.8709 26.4739 52.6367 26.4739V26.4788Z" fill="black"/>
<path fill-rule="evenodd" clip-rule="evenodd" d="M42.6554 15.1162H39.4983C39.3293 15.1162 39.1928 15.2543 39.1912 15.4232V16.471C39.1912 16.4839 39.1912 16.4986 39.1847 16.5116C39.1635 16.5847 39.0855 16.6285 39.0108 16.6074L38.9702 16.5879C38.9588 16.5782 38.9507 16.5668 38.9426 16.5538C37.7808 15.303 36.125 14.6305 34.4206 14.7134C32.5032 14.6987 30.6736 15.5142 29.4014 16.9485C26.618 20.0738 26.618 24.7894 29.4014 27.9148C30.6736 29.3507 32.5048 30.1662 34.4238 30.1516C36.1283 30.2344 37.784 29.5603 38.9458 28.3111C38.9556 28.2965 38.9669 28.2819 38.9799 28.2705C39.0157 28.2478 39.0579 28.2397 39.0985 28.251C39.1554 28.2673 39.1944 28.3192 39.1944 28.3777V29.4352C39.1944 29.6041 39.3309 29.7422 39.4999 29.7422H42.6586C42.8244 29.7455 42.9625 29.6139 42.9657 29.4466C42.9657 29.4433 42.9657 29.4384 42.9657 29.4352V15.4297C42.969 15.2608 42.8357 15.1211 42.6667 15.1178C42.6619 15.1178 42.6586 15.1178 42.6537 15.1178L42.6554 15.1162ZM35.1404 26.4788C32.9029 26.4788 31.0896 24.666 31.0896 22.4292C31.0896 20.1924 32.9029 18.3796 35.1404 18.3796C37.3778 18.3796 39.1912 20.1924 39.1912 22.4292C39.1912 24.666 37.3778 26.4788 35.1404 26.4788Z" fill="black"/>
<path d="M23.8899 24.9633C21.5111 27.0977 17.8519 26.8995 15.7185 24.5214C14.118 22.7395 13.7833 20.1551 14.8736 18.0222C15.8192 16.0437 17.8162 14.7832 20.0097 14.78C21.4315 14.7783 22.8045 15.2965 23.8688 16.2387C24.0134 16.3719 24.236 16.3686 24.3758 16.2305L26.48 14.127C26.6262 13.9824 26.6278 13.7485 26.4848 13.6023C26.4816 13.599 26.4783 13.5958 26.4751 13.5925C24.5155 11.7846 21.8881 10.8814 19.2314 11.1023C13.9799 11.5507 10.0867 16.1704 10.5352 21.4205C10.956 26.344 15.0685 30.1321 20.0114 30.1499C22.4145 30.1532 24.73 29.2468 26.4913 27.6126C26.6392 27.4713 26.6457 27.2374 26.506 27.0896C26.5027 27.0863 26.4995 27.0831 26.4962 27.0798L24.5382 25.1224C24.249 24.8333 24.0345 24.8349 23.8899 24.9633Z" fill="black"/>
<path d="M135.182 19.0992C137.419 19.0992 139.233 17.2861 139.233 15.0496C139.233 12.8131 137.419 11 135.182 11C132.945 11 131.131 12.8131 131.131 15.0496C131.131 17.2861 132.945 19.0992 135.182 19.0992Z" fill="#FF7400"/>
</svg>
